<svg id="图层_1" data-name="图层 1" xmlns="http://www.w3.org/2000/svg" viewBox="0 0 24.99 24.99"><defs><style>.cls-1{fill:#fff;}</style></defs><title>关闭1</title><path class="cls-1" d="M-118.33,157.6l-10.16-10.16-10.16,10.16a1.37,1.37,0,0,1-1.93,0,1.37,1.37,0,0,1,0-1.93l10.16-10.16-10.16-10.16a1.37,1.37,0,0,1,0-1.93,1.37,1.37,0,0,1,1.93,0l10.16,10.16,10.16-10.16a1.37,1.37,0,0,1,1.93,0,1.37,1.37,0,0,1,0,1.93l-10.16,10.16,10.16,10.16a1.37,1.37,0,0,1,0,1.93,1.37,1.37,0,0,1-1.93,0Zm0,0" transform="translate(140.99 -133.01)"/></svg>