<svg xmlns="http://www.w3.org/2000/svg" xmlns:xlink="http://www.w3.org/1999/xlink" width="24" height="24" viewBox="0 0 24 24"><defs><style>.a{fill:none;}.b{clip-path:url(#a);}.c{fill:#fcc100;}</style><clipPath id="a"><rect class="a" width="24" height="24"/></clipPath></defs><g transform="translate(-115.735 -0.036)"><g class="b" transform="translate(115.735 0.036)"><path class="c" d="M137.125,3.535H124.479a5.261,5.261,0,0,0-5.245,5.245V17.2a5.261,5.261,0,0,0,5.245,5.245h8.42a5.26,5.26,0,0,0,5.245-5.245V4.554a1.021,1.021,0,0,0-1.018-1.019m-3.143,7.405-2.946,3.8a.752.752,0,0,1-.5.287.768.768,0,0,1-.559-.154l-2.836-2.226-2.547,3.308a.757.757,0,0,1-.6.3.736.736,0,0,1-.459-.157.755.755,0,0,1-.139-1.059l3.012-3.911a.755.755,0,0,1,1.063-.135l2.839,2.226,2.48-3.2a.755.755,0,0,1,1.195.924" transform="translate(-116.689 -0.99)"/></g></g></svg>