<svg height="24" viewBox="0 0 23.999 24" width="23.999" xmlns="http://www.w3.org/2000/svg" xmlns:xlink="http://www.w3.org/1999/xlink"><clipPath id="a"><path d="m0 0h23.999v24h-23.999z"/></clipPath><clipPath id="b"><path d="m0 0h10.466v6.097h-10.466z"/></clipPath><g clip-path="url(#a)"><path d="m137.052 44.4v12.34a4.391 4.391 0 0 1 -4.386 4.386h-7.955a4.391 4.391 0 0 1 -4.386-4.386v-7.955a4.391 4.391 0 0 1 4.386-4.386zm.028-1.091h-12.369a5.493 5.493 0 0 0 -5.477 5.477v7.954a5.493 5.493 0 0 0 5.477 5.477h7.955a5.493 5.493 0 0 0 5.477-5.477v-12.369a1.066 1.066 0 0 0 -1.063-1.063" fill="#a9b5c4" transform="translate(-116.689 -40.763)"/><g clip-path="url(#b)" transform="translate(6.767 8.951)"><path d="m125.574 58.213a.514.514 0 0 1 -.323-.11.537.537 0 0 1 -.1-.755l3.012-3.911a.536.536 0 0 1 .357-.206h.027a.566.566 0 0 1 .372.111l3.011 2.36 2.615-3.377a.537.537 0 0 1 .849.657l-2.945 3.8a.524.524 0 0 1 -.358.2h-.025a.577.577 0 0 1 -.375-.111l-3.007-2.36-2.684 3.489a.54.54 0 0 1 -.428.213" fill="#a9b5c4" transform="translate(-125.039 -52.116)"/></g></g></svg>