<svg height="24" viewBox="0 0 24.001 24" width="24.001" xmlns="http://www.w3.org/2000/svg" xmlns:xlink="http://www.w3.org/1999/xlink"><clipPath id="a"><path d="m0 0h24.001v24h-24.001z"/></clipPath><g clip-path="url(#a)" fill="#a9b5c4"><path d="m100.92 48.568c-.58-1.593-2.368-2.548-4.818-2.808a9.61 9.61 0 0 0 -16.184 5.89c-1.709 1.774-2.466 3.655-1.886 5.248s2.368 2.548 4.818 2.808a9.61 9.61 0 0 0 16.184-5.891c1.709-1.774 2.466-3.655 1.886-5.247m-21.882 7.964a3.484 3.484 0 0 1 .833-3.175 9.491 9.491 0 0 0 1.846 5.071 3.483 3.483 0 0 1 -2.679-1.9m13.362 4.249a8.548 8.548 0 0 1 -7.778-1 23.55 23.55 0 0 0 13.093-4.765 8.547 8.547 0 0 1 -5.315 5.765m5.606-7.455a21.541 21.541 0 0 1 -14.692 5.348 8.492 8.492 0 0 1 -2.375-6.525 8.561 8.561 0 0 1 16.578-2.34 8.486 8.486 0 0 1 .489 3.516m1.071-1.213a9.491 9.491 0 0 0 -1.846-5.071 3.484 3.484 0 0 1 2.679 1.9 3.484 3.484 0 0 1 -.833 3.175" transform="translate(-77.475 -40.733)"/><path d="m88.193 48.47a1.98 1.98 0 1 0 1.979 1.98 1.981 1.981 0 0 0 -1.979-1.98m0 3.246a1.266 1.266 0 1 1 1.265-1.266 1.268 1.268 0 0 1 -1.265 1.266" transform="translate(-79.759 -42.197)"/><path d="m95.19 51.449a1.436 1.436 0 1 0 1.436 1.436 1.438 1.438 0 0 0 -1.436-1.436m0 2.159a.723.723 0 1 1 .723-.723.724.724 0 0 1 -.723.723" transform="translate(-81.815 -43.009)"/></g></svg>