<svg xmlns="http://www.w3.org/2000/svg" xmlns:xlink="http://www.w3.org/1999/xlink" width="24" height="24" viewBox="0 0 24 24"><defs><style>.a{fill:none;}.b{clip-path:url(#a);}.c{fill:#fcc100;}</style><clipPath id="a"><rect class="a" width="24" height="24"/></clipPath></defs><g transform="translate(-77.339 -0.071)"><g class="b" transform="translate(77.339 0.071)"><path class="c" d="M100.918,8.923c-.647-1.777-2.8-2.761-5.7-2.871a9.114,9.114,0,0,0-1.514-1h0l-.015-.007A9.105,9.105,0,0,0,92,4.361l-.027-.008A9.1,9.1,0,0,0,90.2,4.026l-.069-.006q-.439-.033-.882-.023l-.1,0q-.41.014-.823.066l-.09.01c-.281.039-.563.093-.844.159l-.181.046c-.284.073-.567.156-.847.257h0c-.28.1-.549.22-.813.346l-.187.092a9.067,9.067,0,0,0-1.47.932L83.777,6a9.03,9.03,0,0,0-1.256,1.233l-.054.065a9.105,9.105,0,0,0-.991,1.48l-.033.061a9.173,9.173,0,0,0-.9,2.55c-2.148,1.946-3.163,4.083-2.516,5.86s2.8,2.763,5.7,2.872A9.071,9.071,0,0,0,98.4,14.787c2.151-1.947,3.167-4.086,2.52-5.864m-10.4.964a1.079,1.079,0,1,1-1.079,1.079,1.08,1.08,0,0,1,1.079-1.079M85.576,7.72a1.623,1.623,0,1,1-1.623,1.623A1.623,1.623,0,0,1,85.576,7.72m6.637,9.6c-.343.142-.691.28-1.049.41s-.713.248-1.066.36c-5.273,1.641-10.2,1.154-11.061-1.2-.4-1.1.14-2.46,1.351-3.814,0,.091,0,.181,0,.273,0,.123.011.246.02.369.011.169.028.338.049.507.011.089.02.178.034.268.036.236.085.471.141.705.018.076.037.151.057.227.068.255.143.509.235.762l0,.015a9.155,9.155,0,0,0,.8,1.655A18.141,18.141,0,0,0,90.8,16.725a18.148,18.148,0,0,0,7.676-4.967,9.158,9.158,0,0,0-.452-1.781c-.1-.261-.2-.512-.321-.759-.03-.064-.06-.128-.092-.191-.115-.23-.235-.455-.367-.672-.036-.059-.076-.115-.113-.173q-.148-.231-.309-.452c-.069-.095-.14-.188-.212-.28-.059-.073-.12-.144-.181-.215,1.8.26,3.085.953,3.487,2.054.857,2.358-2.606,5.9-7.7,8.031" transform="translate(-77.475 -1.142)"/></g></g></svg>