<svg xmlns="http://www.w3.org/2000/svg" xmlns:xlink="http://www.w3.org/1999/xlink" width="24.001" height="24" viewBox="0 0 24.001 24"><defs><style>.a{fill:none;}.b{clip-path:url(#a);}.c{fill:#fcc100;}</style><clipPath id="a"><rect class="a" width="24.001" height="24"/></clipPath></defs><g transform="translate(0 -0.075)"><g class="b" transform="translate(0 0.075)"><path class="c" d="M22.245,10.089,13.612,3.332a1.232,1.232,0,0,0-1.624,0L3.356,10.089a1.234,1.234,0,0,0-.422.928V17.99a4.743,4.743,0,0,0,4.743,4.743H17.923a4.743,4.743,0,0,0,4.743-4.743V11.017a1.233,1.233,0,0,0-.421-.928m-5.694,7.4a4.021,4.021,0,0,1-3.8,2.326,4.016,4.016,0,0,1-3.8-2.327.545.545,0,1,1,1.012-.405,2.966,2.966,0,0,0,2.783,1.641,2.966,2.966,0,0,0,2.784-1.642.546.546,0,1,1,1.013.407" transform="translate(-0.8 -0.88)"/></g></g></svg>