<svg height="24" viewBox="0 0 23.999 24" width="23.999" xmlns="http://www.w3.org/2000/svg" xmlns:xlink="http://www.w3.org/1999/xlink"><clipPath id="a"><path d="m0 0h23.999v24h-23.999z"/></clipPath><g clip-path="url(#a)" fill="#a9b5c4"><path d="m53.605 54.908a.87.87 0 0 1 -.405-.1l-1.015-.535a.145.145 0 0 0 -.132 0l-1.015.535a.869.869 0 0 1 -1.262-.916l.194-1.131a.139.139 0 0 0 -.041-.124l-.822-.8a.87.87 0 0 1 .481-1.483l1.135-.165a.141.141 0 0 0 .107-.078l.508-1.028a.869.869 0 0 1 1.559 0l.508 1.028a.142.142 0 0 0 .108.078l1.135.165a.87.87 0 0 1 .481 1.483l-.821.8a.14.14 0 0 0 -.041.125l.193 1.129a.872.872 0 0 1 -.856 1.018m-1.486-1.379a.865.865 0 0 1 .4.1l1.015.534a.143.143 0 0 0 .206-.15l-.194-1.13a.868.868 0 0 1 .251-.769l.82-.8a.141.141 0 0 0 -.079-.241l-1.135-.164a.871.871 0 0 1 -.654-.476l-.501-1.034c-.068-.138-.187-.137-.255 0l-.508 1.028a.874.874 0 0 1 -.654.476l-1.135.164a.136.136 0 0 0 -.115.1.135.135 0 0 0 .036.145l.821.8a.868.868 0 0 1 .249.769l-.193 1.131a.135.135 0 0 0 .056.138.141.141 0 0 0 .15.012l1.015-.534a.87.87 0 0 1 .405-.1" transform="translate(-40.119 -42.385)"/><path d="m47.752 62.42c-.56 0-1.016-.335-1.016-.747v-.106a3.19 3.19 0 0 1 1.454-2.242.758.758 0 0 0 .284-.611.852.852 0 0 0 -.327-.674c-2.553-1.954-5.267-6.054-5.267-9.8v-1.969a2.408 2.408 0 0 1 2.114-2.615h11a2.408 2.408 0 0 1 2.114 2.615v1.967c0 3.777-2.71 7.876-5.26 9.813a.857.857 0 0 0 -.329.674.764.764 0 0 0 .284.614 3.184 3.184 0 0 1 1.449 2.229v.106c0 .412-.455.747-1.016.747zm-2.759-17.82c-.539 0-1.139.684-1.139 1.668v1.967c0 3.326 2.489 7.219 4.9 9.06a1.8 1.8 0 0 1 .7 1.412 1.688 1.688 0 0 1 -.647 1.352 2.969 2.969 0 0 0 -1.063 1.322l-.025.091h5.551l-.025-.092a2.99 2.99 0 0 0 -1.057-1.31 1.689 1.689 0 0 1 -.647-1.355 1.794 1.794 0 0 1 .7-1.41c2.4-1.826 4.887-5.719 4.887-9.071v-1.963c0-.984-.6-1.668-1.139-1.668z" transform="translate(-38.492 -41.038)"/><path d="m63.509 47.58v1.091a1.635 1.635 0 0 1 1.481 1.5 1.479 1.479 0 0 1 -.46 1.068 1.577 1.577 0 0 1 -1.1.446h-.251q-.144.55-.344 1.091h.595a2.655 2.655 0 0 0 2.688-2.605 2.745 2.745 0 0 0 -2.607-2.586" transform="translate(-43.934 -42.108)"/><path d="m42.034 51.679a1.541 1.541 0 0 1 -1.562-1.514 1.6 1.6 0 0 1 1.444-1.5v-1.086a2.709 2.709 0 0 0 -2.569 2.586 2.655 2.655 0 0 0 2.688 2.605h.565q-.2-.54-.346-1.091z" transform="translate(-37.529 -42.108)"/></g></svg>