<svg xmlns="http://www.w3.org/2000/svg" xmlns:xlink="http://www.w3.org/1999/xlink" width="23.999" height="24" viewBox="0 0 23.999 24"><defs><style>.a{fill:none;}.b{clip-path:url(#a);}.c{fill:#fcc100;}</style><clipPath id="a"><rect class="a" width="23.999" height="24"/></clipPath></defs><g transform="translate(-36.847 0)"><g class="b" transform="translate(36.847 0)"><path class="c" d="M57.217,6.435V6.187A2.477,2.477,0,0,0,55.028,3.5h-11a2.476,2.476,0,0,0-2.189,2.687v.248a2.642,2.642,0,0,0-2.494,2.586,2.655,2.655,0,0,0,2.688,2.605h.487a15.2,15.2,0,0,0,4.614,6.387.759.759,0,0,1,.043,1.171,3.324,3.324,0,0,0-1.481,2.3v.106c0,.452.488.819,1.091.819h5.481c.6,0,1.091-.367,1.091-.819v-.106A3.31,3.31,0,0,0,51.884,19.2a.76.76,0,0,1,.044-1.173,15.053,15.053,0,0,0,4.613-6.4h.481a2.655,2.655,0,0,0,2.688-2.605,2.642,2.642,0,0,0-2.494-2.586m-4.932,3.708-.821.8a.505.505,0,0,0-.145.448l.194,1.13a.506.506,0,0,1-.734.533l-1.015-.534a.508.508,0,0,0-.471,0l-1.015.534a.506.506,0,0,1-.734-.533l.194-1.13a.507.507,0,0,0-.145-.448l-.821-.8a.506.506,0,0,1,.28-.863l1.135-.164a.508.508,0,0,0,.381-.277l.507-1.028a.506.506,0,0,1,.907,0l.508,1.028a.506.506,0,0,0,.38.277l1.135.164a.506.506,0,0,1,.28.863" transform="translate(-37.529 -0.955)"/></g></g></svg>