<svg height="24" viewBox="0 0 23.999 24" width="23.999" xmlns="http://www.w3.org/2000/svg" xmlns:xlink="http://www.w3.org/1999/xlink"><clipPath id="a"><path d="m0 0h23.999v24h-23.999z"/></clipPath><g clip-path="url(#a)" fill="#a9b5c4"><path d="m171.451 43.829v4.406a4.406 4.406 0 1 1 -4.406-4.406zm1.021-1.021h-5.427a5.427 5.427 0 1 0 5.427 5.427z" transform="translate(-155.347 -40.626)"/><path d="m172 60.628a2.713 2.713 0 0 1 0 5.372h-11.9a2.713 2.713 0 0 1 0-5.377zm0-1.021h-11.9a3.743 3.743 0 0 0 0 7.419h11.9a3.743 3.743 0 0 0 0-7.419" transform="translate(-154.05 -45.208)"/></g></svg>